{
	"asset":{
		"generator":"Khronos glTF Blender I/O v4.1.63",
		"version":"2.0"
	},
	"scene":0,
	"scenes":[
		{
			"name":"Scene",
			"nodes":[
				0,
				1,
				2,
				3
			]
		}
	],
	"nodes":[
		{
			"mesh":0,
			"name":"Cube",
			"scale":[
				100,
				1,
				100
			],
			"translation":[
				0,
				-1,
				0
			]
		},
		{
			"mesh":1,
			"name":"Icosphere",
			"scale":[
				1.2000000476837158,
				1.2000000476837158,
				1.2000000476837158
			],
			"translation":[
				0,
				1.5612215995788574,
				0
			]
		},
		{
			"mesh":2,
			"name":"Icosphere.001",
			"translation":[
				0,
				1.5612215995788574,
				2.6028828620910645
			]
		},
		{
			"mesh":3,
			"name":"Icosphere.002",
			"translation":[
				0,
				2.147489070892334,
				-2.3907532691955566
			]
		}
	],
	"materials":[
		{
			"doubleSided":true,
			"name":"Material",
			"pbrMetallicRoughness":{
				"baseColorFactor":[
					0,
					0.5154201984405518,
					0.05123439431190491,
					1
				],
				"metallicFactor":0
			}
		},
		{
			"doubleSided":true,
			"name":"Material.002",
			"pbrMetallicRoughness":{
				"baseColorFactor":[
					0.7967780828475952,
					0.7967780828475952,
					0.7967780828475952,
					1
				],
				"metallicFactor":0,
				"roughnessFactor":0
			}
		},
		{
			"doubleSided":true,
			"name":"Material.001",
			"pbrMetallicRoughness":{
				"baseColorFactor":[
					0,
					0.25293418765068054,
					0.8004492521286011,
					1
				],
				"metallicFactor":0,
				"roughnessFactor":0.5
			}
		},
		{
			"doubleSided":true,
			"name":"Material.003",
			"pbrMetallicRoughness":{
				"baseColorFactor":[
					0.8006223440170288,
					0.6163119673728943,
					0,
					1
				],
				"metallicFactor":0
			}
		}
	],
	"meshes":[
		{
			"name":"Cube",
			"primitives":[
				{
					"attributes":{
						"POSITION":0,
						"NORMAL":1,
						"TEXCOORD_0":2
					},
					"indices":3,
					"material":0
				}
			]
		},
		{
			"name":"Mesh",
			"primitives":[
				{
					"attributes":{
						"POSITION":4,
						"NORMAL":5,
						"TEXCOORD_0":6
					},
					"indices":7,
					"material":1
				}
			]
		},
		{
			"name":"Mesh",
			"primitives":[
				{
					"attributes":{
						"POSITION":8,
						"NORMAL":9,
						"TEXCOORD_0":10
					},
					"indices":7,
					"material":2
				}
			]
		},
		{
			"name":"Mesh",
			"primitives":[
				{
					"attributes":{
						"POSITION":11,
						"NORMAL":12,
						"TEXCOORD_0":13
					},
					"indices":7,
					"material":3
				}
			]
		}
	],
	"accessors":[
		{
			"bufferView":0,
			"componentType":5126,
			"count":24,
			"max":[
				1,
				1,
				1
			],
			"min":[
				-1,
				-1,
				-1
			],
			"type":"VEC3"
		},
		{
			"bufferView":1,
			"componentType":5126,
			"count":24,
			"type":"VEC3"
		},
		{
			"bufferView":2,
			"componentType":5126,
			"count":24,
			"type":"VEC2"
		},
		{
			"bufferView":3,
			"componentType":5123,
			"count":36,
			"type":"SCALAR"
		},
		{
			"bufferView":4,
			"componentType":5126,
			"count":983040,
			"max":[
				0.9242863059043884,
				0.9303051233291626,
				0.9248635768890381
			],
			"min":[
				-0.9242863059043884,
				-0.9303051233291626,
				-0.9248635768890381
			],
			"type":"VEC3"
		},
		{
			"bufferView":5,
			"componentType":5126,
			"count":983040,
			"type":"VEC3"
		},
		{
			"bufferView":6,
			"componentType":5126,
			"count":983040,
			"type":"VEC2"
		},
		{
			"bufferView":7,
			"componentType":5125,
			"count":1474560,
			"type":"SCALAR"
		},
		{
			"bufferView":8,
			"componentType":5126,
			"count":983040,
			"max":[
				0.9242863059043884,
				0.9303051233291626,
				0.9248635768890381
			],
			"min":[
				-0.9242863059043884,
				-0.9303051233291626,
				-0.9248635768890381
			],
			"type":"VEC3"
		},
		{
			"bufferView":9,
			"componentType":5126,
			"count":983040,
			"type":"VEC3"
		},
		{
			"bufferView":10,
			"componentType":5126,
			"count":983040,
			"type":"VEC2"
		},
		{
			"bufferView":11,
			"componentType":5126,
			"count":983040,
			"max":[
				0.9242863059043884,
				0.9303051233291626,
				0.9248635768890381
			],
			"min":[
				-0.9242863059043884,
				-0.9303051233291626,
				-0.9248635768890381
			],
			"type":"VEC3"
		},
		{
			"bufferView":12,
			"componentType":5126,
			"count":983040,
			"type":"VEC3"
		},
		{
			"bufferView":13,
			"componentType":5126,
			"count":983040,
			"type":"VEC2"
		}
	],
	"bufferViews":[
		{
			"buffer":0,
			"byteLength":288,
			"byteOffset":0,
			"target":34962
		},
		{
			"buffer":0,
			"byteLength":288,
			"byteOffset":288,
			"target":34962
		},
		{
			"buffer":0,
			"byteLength":192,
			"byteOffset":576,
			"target":34962
		},
		{
			"buffer":0,
			"byteLength":72,
			"byteOffset":768,
			"target":34963
		},
		{
			"buffer":0,
			"byteLength":11796480,
			"byteOffset":840,
			"target":34962
		},
		{
			"buffer":0,
			"byteLength":11796480,
			"byteOffset":11797320,
			"target":34962
		},
		{
			"buffer":0,
			"byteLength":7864320,
			"byteOffset":23593800,
			"target":34962
		},
		{
			"buffer":0,
			"byteLength":5898240,
			"byteOffset":31458120,
			"target":34963
		},
		{
			"buffer":0,
			"byteLength":11796480,
			"byteOffset":37356360,
			"target":34962
		},
		{
			"buffer":0,
			"byteLength":11796480,
			"byteOffset":49152840,
			"target":34962
		},
		{
			"buffer":0,
			"byteLength":7864320,
			"byteOffset":60949320,
			"target":34962
		},
		{
			"buffer":0,
			"byteLength":11796480,
			"byteOffset":68813640,
			"target":34962
		},
		{
			"buffer":0,
			"byteLength":11796480,
			"byteOffset":80610120,
			"target":34962
		},
		{
			"buffer":0,
			"byteLength":7864320,
			"byteOffset":92406600,
			"target":34962
		}
	],
	"buffers":[
		{
			"byteLength":100270920,
			"uri":"spheres.bin"
		}
	]
}
